<svg width="27" height="20" viewBox="0 0 27 20" fill="none" xmlns="http://www.w3.org/2000/svg">
<path d="M15.8001 3.76002V0.400024H0.600098V2.00002H14.2001V14.8H8.9201C8.4401 13.84 7.3201 13.2 6.2001 13.2C5.0801 13.2 3.9601 13.84 3.4801 14.8H0.600098V16.4H3.0001C3.0001 18.16 4.4401 19.6 6.2001 19.6C7.9601 19.6 9.4001 18.16 9.4001 16.4H14.2001H15.8001H17.4001C17.4001 18.16 18.8401 19.6 20.6001 19.6C22.3601 19.6 23.8001 18.16 23.8001 16.4H27.0001V6.96003L15.8001 3.76002ZM6.2001 18C5.2401 18 4.6001 17.36 4.6001 16.4C4.6001 15.44 5.2401 14.8 6.2001 14.8C7.1601 14.8 7.8001 15.44 7.8001 16.4C7.8001 17.36 7.1601 18 6.2001 18ZM20.6001 18C19.6401 18 19.0001 17.36 19.0001 16.4C19.0001 15.44 19.6401 14.8 20.6001 14.8C21.5601 14.8 22.2001 15.44 22.2001 16.4C22.2001 17.36 21.5601 18 20.6001 18ZM25.4001 14.8H23.3201C22.8401 13.84 21.7201 13.2 20.6001 13.2C19.4801 13.2 18.3601 13.84 17.8801 14.8H15.8001V5.52002L25.4001 8.24002V14.8Z" fill="#222222"/>
</svg>
