<svg width="38" height="21" viewBox="0 0 38 21" fill="none" xmlns="http://www.w3.org/2000/svg">
<path d="M38 9.43519C38 6.05696 35.3918 3.27826 32.0836 3.00237V2.03883C32.0836 1.76827 31.8836 1.5393 31.6155 1.50294C31.5134 1.48913 30.717 1.38172 29.5381 1.23828C29.4725 1.21 29.4002 1.19419 29.3242 1.19419C29.2943 1.19419 29.2653 1.19727 29.2368 1.20193C26.4514 0.867298 21.8655 0.374756 19 0.374756C16.1346 0.374756 11.5487 0.867215 8.76333 1.20193C8.73479 1.19727 8.70576 1.19419 8.67589 1.19419C8.59993 1.19419 8.52763 1.21 8.46198 1.23828C7.28304 1.38172 6.48657 1.48913 6.38457 1.50294C6.11642 1.5393 5.91649 1.76818 5.91649 2.03883V3.00237C2.60822 3.27817 0 6.05696 0 9.43544C0 12.8137 2.60822 15.5924 5.91641 15.8683V16.8301C5.91641 17.0463 6.04512 17.2416 6.24371 17.327C6.33989 17.3684 7.10624 17.6953 8.26646 18.1282C8.36564 18.2432 8.51207 18.3163 8.67589 18.3163C8.70401 18.3163 8.73147 18.3135 8.7585 18.3094C11.4376 19.2827 15.7271 20.6255 19 20.6255C24.0234 20.6255 31.443 17.4618 31.7564 17.3271C31.955 17.2418 32.0837 17.0464 32.0837 16.8302V15.8684C35.3919 15.5925 38 12.8137 38 9.43519ZM28.7834 8.9657C27.2009 9.18584 21.9387 9.88572 19 9.88572C16.0613 9.88572 10.7991 9.18584 9.21668 8.9657V6.27702H28.7834V8.9657ZM9.21668 10.0582C10.9798 10.3028 16.0417 10.9673 19 10.9673C21.9584 10.9673 27.0203 10.3028 28.7834 10.0582V12.7241C27.3023 13.1382 21.9526 14.5744 19 14.5744C16.0488 14.5744 10.6981 13.1382 9.21668 12.7241V10.0582ZM28.7834 2.23876V5.19534H9.21668V2.23868C12.0068 1.90929 16.3293 1.45618 19 1.45618C21.6703 1.45627 25.9931 1.90937 28.7834 2.23876ZM1.08159 9.43519C1.08159 6.65358 3.20535 4.35885 5.91641 4.08679V14.7838C3.20535 14.5118 1.08159 12.217 1.08159 9.43519ZM6.998 2.51307C7.27431 2.47721 7.66285 2.42762 8.13509 2.3693V13.1402V13.1429V16.918C7.6413 16.7295 7.25101 16.5729 6.998 16.4694V2.51307ZM31.002 16.4694C29.5064 17.0813 23.2247 19.5439 19 19.5439C15.9531 19.5439 11.8364 18.263 9.21668 17.3193V13.8476C11.0502 14.3542 16.0489 15.6559 19 15.6559C21.9512 15.6559 26.9498 14.3542 28.7834 13.8476V17.5C28.7834 17.7987 29.0255 18.0408 29.3242 18.0408C29.6229 18.0408 29.865 17.7987 29.865 17.5V13.143V13.1402V2.3693C30.3372 2.42754 30.7258 2.47721 31.0021 2.51299L31.002 16.4694ZM32.0836 14.7838V4.08679C34.7947 4.35885 36.9184 6.65358 36.9184 9.43544C36.9184 12.2171 34.7947 14.5118 32.0836 14.7838Z" fill="black"/>
</svg>
