<svg width="15" height="20" viewBox="0 0 15 20" fill="none" xmlns="http://www.w3.org/2000/svg">
<path d="M12.0185 0H2.70585C1.42536 0 0.377686 0.9 0.377686 2V18C0.377686 19.1 1.42536 20 2.70585 20H12.0185C13.299 20 14.3467 19.1 14.3467 18V2C14.3467 0.9 13.299 0 12.0185 0ZM13.1826 18C13.1826 18.6 12.7169 19 12.0185 19H2.70585C2.0074 19 1.54177 18.6 1.54177 18V15H13.1826V18ZM13.1826 14H1.54177V4H13.1826V14ZM13.1826 3H1.54177V2C1.54177 1.4 2.0074 1 2.70585 1H12.0185C12.7169 1 13.1826 1.4 13.1826 2V3Z" fill="#FDFDFD"/>
</svg>
