<svg width="64" height="25" viewBox="0 0 64 25" fill="none" xmlns="http://www.w3.org/2000/svg">
<g clip-path="url(#clip0)">
<path d="M29.5 13.75H38.375L36.125 16L37 16.875L40.75 13.125L37 9.375L36.125 10.25L38.375 12.5H29.5V13.75Z" fill="#222222"/>
</g>
<g clip-path="url(#clip1)">
<path d="M35.125 13.75H26.25L28.5 16L27.625 16.875L23.875 13.125L27.625 9.375L28.5 10.25L26.25 12.5H35.125V13.75Z" fill="#222222"/>
</g>
<path d="M2 25C2 25 2 13.75 12.625 13.75C23.25 13.75 23.25 25 23.25 25H2ZM12.625 15C5.25 15 3.625 21 3.375 23.75H21.875C21.5 21 20 15 12.625 15ZM12.625 12.5C9.5 12.5 7 10 7 6.875C7 3.75 9.5 1.25 12.625 1.25C15.75 1.25 18.25 3.75 18.25 6.875C18.25 10 15.75 12.5 12.625 12.5ZM12.625 2.5C10.25 2.5 8.25 4.5 8.25 6.875C8.25 9.25 10.25 11.25 12.625 11.25C15 11.25 17 9.25 17 6.875C17 4.5 15 2.5 12.625 2.5Z" fill="#222222"/>
<path d="M40.75 25C40.75 25 40.75 13.75 51.375 13.75C62 13.75 62 25 62 25H40.75ZM51.375 15C44 15 42.375 21 42.125 23.75H60.625C60.25 21 58.75 15 51.375 15ZM51.375 12.5C48.25 12.5 45.75 10 45.75 6.875C45.75 3.75 48.25 1.25 51.375 1.25C54.5 1.25 57 3.75 57 6.875C57 10 54.5 12.5 51.375 12.5ZM51.375 2.5C49 2.5 47 4.5 47 6.875C47 9.25 49 11.25 51.375 11.25C53.75 11.25 55.75 9.25 55.75 6.875C55.75 4.5 53.75 2.5 51.375 2.5Z" fill="#222222"/>
<defs>
<clipPath id="clip0">
<rect width="11.25" height="11.25" fill="white" transform="translate(29.5 7.5)"/>
</clipPath>
<clipPath id="clip1">
<rect width="11.25" height="11.25" fill="white" transform="matrix(-1 0 0 1 35.125 7.5)"/>
</clipPath>
</defs>
</svg>
