<svg width="17" height="17" viewBox="0 0 17 17" fill="none" xmlns="http://www.w3.org/2000/svg">
<path fill-rule="evenodd" clip-rule="evenodd" d="M6.35908 4.90206C6.20217 4.55142 6.03696 4.54441 5.88768 4.53827C5.76557 4.53301 5.62579 4.53333 5.48622 4.53333C5.34655 4.53333 5.11957 4.58609 4.92763 4.79678C4.73558 5.00747 4.19434 5.5168 4.19434 6.55269C4.19434 7.58869 4.94509 8.58971 5.04974 8.7303C5.15449 8.87069 6.49898 11.0644 8.62826 11.9084C10.3979 12.6098 10.758 12.4703 11.1421 12.4352C11.5262 12.4001 12.3815 11.9259 12.5561 11.4342C12.7307 10.9427 12.7307 10.5213 12.6783 10.4332C12.6259 10.3455 12.4863 10.2928 12.2767 10.1876C12.0672 10.0823 11.0373 9.57282 10.8453 9.50263C10.6532 9.43244 10.5136 9.39734 10.3739 9.60815C10.2342 9.81872 9.83297 10.2928 9.71075 10.4332C9.58853 10.5739 9.46632 10.5915 9.2568 10.4862C9.04729 10.3806 8.37259 10.1585 7.57219 9.4412C6.94943 8.88317 6.52898 8.19396 6.40677 7.98317C6.28455 7.77259 6.39367 7.65853 6.49876 7.55356C6.59282 7.45924 6.70827 7.30778 6.81303 7.18483C6.91756 7.06188 6.95248 6.97414 7.02232 6.83375C7.09216 6.69314 7.05724 6.57021 7.00486 6.46492C6.95248 6.35963 6.54535 5.31839 6.35908 4.90206Z" fill="white"/>
<path d="M14.3851 2.47046C12.8021 0.878293 10.6972 0.000996736 8.45451 0C3.83311 0 0.0722401 3.77878 0.0703824 8.42344C0.0698377 9.90814 0.455803 11.3574 1.18942 12.6349L0 17L4.44451 15.8287C5.66907 16.4999 7.04782 16.8536 8.4509 16.8541H8.45447H8.45451C13.0751 16.8541 16.8366 13.0747 16.8385 8.43023C16.8393 6.17926 15.968 4.06274 14.3851 2.47046ZM8.45451 15.4314H8.45178C7.20114 15.4308 5.97472 15.0933 4.90501 14.4553L4.65042 14.3036L2.01296 14.9986L2.71712 12.415L2.55125 12.1501C1.85365 11.0353 1.48536 9.74691 1.48591 8.424C1.48743 4.56352 4.61332 1.42283 8.45713 1.42283C10.3185 1.42361 12.068 2.15284 13.3837 3.47619C14.6994 4.79955 15.4234 6.55874 15.4229 8.42972C15.4212 12.2903 12.2952 15.4314 8.45451 15.4314Z" fill="white"/>
</svg>
