<svg id="Layer_1" data-name="Layer 1" xmlns="http://www.w3.org/2000/svg" viewBox="0 0 320 210"><path d="M134.36,30.57h5.42l1.2,3.36h2.56L138.38,20.2h-2.62l-5.19,13.73h2.59Zm2.69-7.68,2,5.59h-3.92Z" transform="translate(-20 -20)"/><path d="M156.11,34.2a4.9,4.9,0,0,0,5.15-5v-9h-2.43v8.85a2.74,2.74,0,1,1-5.48,0V20.2h-2.43v8.94A5,5,0,0,0,156.11,34.2Z" transform="translate(-20 -20)"/><path d="M168.11,24.69l5.46,9.24h2.22V20.2h-2.42v9.18L168,20.2h-2.3V33.93h2.46Z" transform="translate(-20 -20)"/><path d="M182.71,20.2h-2.43V33.93h2.43Z" transform="translate(-20 -20)"/><path d="M193.32,34.2a6.69,6.69,0,0,0,2-.3l1.46,2.36,1.76-1.06L197.24,33a7.11,7.11,0,0,0,3.06-5.88,7,7,0,1,0-7,7.08Zm0-12a4.67,4.67,0,0,1,4.55,4.85A5,5,0,0,1,196,31l-1.46-2.4-1.76,1.07,1.33,2.16a7.36,7.36,0,0,1-.8.06,4.61,4.61,0,0,1-4.52-4.82A4.64,4.64,0,0,1,193.32,22.23Z" transform="translate(-20 -20)"/><path d="M209,34.2a4.9,4.9,0,0,0,5.15-5v-9h-2.42v8.85a2.75,2.75,0,1,1-5.49,0V20.2h-2.43v8.94A5,5,0,0,0,209,34.2Z" transform="translate(-20 -20)"/><path d="M227.2,31.77H221V28.31h5.29V26.09H221v-3.7H227V20.2h-8.44V33.93h8.64Z" transform="translate(-20 -20)"/><path d="M56,221.88l-1.63-.46c-1.56-.43-1.69-1.23-1.69-1.6A2,2,0,0,1,54.85,218a2,2,0,0,1,2.13,2h2.43c0-2.56-2-4.12-4.49-4.12s-4.66,1.66-4.66,4.09c0,1.2.53,3,3.46,3.72l1.73.47c1.16.33,2,.86,2,1.83a2.06,2.06,0,0,1-2.29,1.93,2.33,2.33,0,0,1-2.56-2.07H50.13c0,2.33,2,4.23,4.92,4.23,2.69,0,4.79-1.67,4.79-4.19C59.84,223.58,58.18,222.48,56,221.88Z" transform="translate(-20 -20)"/><path d="M66.79,216l-5.16,13.73h2.6l1.16-3.36h5.42l1.2,3.36h2.56L69.41,216Zm-.67,8.24,2-5.58,2,5.58Z" transform="translate(-20 -20)"/><path d="M79.72,216H77.3v13.73h2.42Z" transform="translate(-20 -20)"/><path d="M86.64,216H84.21v13.73H92v-2.19H86.64Z" transform="translate(-20 -20)"/><path d="M97.41,216H95v13.73h2.42Z" transform="translate(-20 -20)"/><path d="M109.55,225.18,104.17,216h-2.3v13.73h2.43v-9.24l5.49,9.24H112V216h-2.46Z" transform="translate(-20 -20)"/><path d="M122.69,224.68h3.92c0,1.76-1.86,3.09-3.92,3.09a4.9,4.9,0,0,1,0-9.78,4.5,4.5,0,0,1,3.16,1.33l1.76-1.53a6.76,6.76,0,0,0-4.92-2.06,7.12,7.12,0,0,0,.07,14.23c3.82,0,6.52-2.32,6.52-7.31h-6.59v2Z" transform="translate(-20 -20)"/><path d="M143.7,218a4.37,4.37,0,0,1,3.56,1.8l1.83-1.4a6.79,6.79,0,0,0-5.45-2.66,7.1,7.1,0,0,0,0,14.2,6.84,6.84,0,0,0,5.45-2.66l-1.83-1.39a4.39,4.39,0,0,1-3.56,1.79,4.64,4.64,0,0,1-4.58-4.82A4.7,4.7,0,0,1,143.7,218Z" transform="translate(-20 -20)"/><path d="M158.27,215.73a7.1,7.1,0,1,0,7,7.12A7,7,0,0,0,158.27,215.73Zm0,12a4.85,4.85,0,0,1,0-9.68,4.85,4.85,0,0,1,0,9.68Z" transform="translate(-20 -20)"/><path d="M171.3,216h-2.42v13.73h7.74v-2.19H171.3Z" transform="translate(-20 -20)"/><path d="M182.08,216h-2.43v13.73h7.75v-2.19h-5.32Z" transform="translate(-20 -20)"/><path d="M194.58,216l-5.15,13.73H192l1.16-3.36h5.39l1.2,3.36h2.56L197.18,216Zm-.66,8.24,2-5.58,2,5.58Z" transform="translate(-20 -20)"/><path d="M212.57,222.38a2.83,2.83,0,0,0,1.8-2.86c0-2.09-1.53-3.52-3.93-3.52h-5.35v13.73h5.75a3.89,3.89,0,0,0,4.23-3.92A3.3,3.3,0,0,0,212.57,222.38Zm-5-4.22h2.83a1.68,1.68,0,0,1,0,3.36h-2.83Zm3,9.38h-3v-4h3a1.94,1.94,0,0,1,2.09,2A2,2,0,0,1,210.51,227.54Z" transform="translate(-20 -20)"/><path d="M224.81,215.73a7.1,7.1,0,1,0,7,7.12A7,7,0,0,0,224.81,215.73Zm0,12a4.85,4.85,0,0,1,0-9.68,4.85,4.85,0,0,1,0,9.68Z" transform="translate(-20 -20)"/><path d="M245.16,220.39A4.15,4.15,0,0,0,240.8,216h-5.38V229.7h2.42v-5h1.23l3.4,5h2.86l-3.56-5.09A4.08,4.08,0,0,0,245.16,220.39Zm-7.32,2.29v-4.52h2.76a2.11,2.11,0,0,1,2.13,2.26,2.14,2.14,0,0,1-2.43,2.23h-2.46Z" transform="translate(-20 -20)"/><path d="M252.78,216l-5.16,13.73h2.59l1.17-3.36h5.39l1.19,3.36h2.56L255.37,216Zm-.67,8.24,2-5.58,2,5.58Z" transform="translate(-20 -20)"/><path d="M260.79,218.16h3.92v11.57h2.43V218.16h3.93V216H260.79Z" transform="translate(-20 -20)"/><path d="M276.48,216h-2.42v13.73h2.42Z" transform="translate(-20 -20)"/><path d="M287.09,215.73a7.1,7.1,0,1,0,7,7.12A7,7,0,0,0,287.09,215.73Zm0,12a4.85,4.85,0,0,1,0-9.68,4.68,4.68,0,0,1,4.56,4.86A4.63,4.63,0,0,1,287.06,227.7Z" transform="translate(-20 -20)"/><path d="M305.38,225.18,300,216H297.7v13.73h2.43v-9.24l5.48,9.24h2.2V216h-2.43Z" transform="translate(-20 -20)"/><path d="M30.21,109.22V92.13a23.88,23.88,0,0,0,8.21,1.43c10.31,0,18-6.62,18-16.93,0-10-7.42-16.13-18.76-16.13H20V61c5.42,0,5.75,3,5.75,8.94v39.28c0,5.92-.33,8.94-5.75,8.94v.47H36.29v-.47C30.84,118.17,30.21,115.14,30.21,109.22Zm0-44.53c0-1.93,1.13-2.86,3-2.86h4c9.24,0,14.19,5.59,14.19,14.83C51.42,86.41,45.9,92,36.59,92c-6.38,0-6.38-2.72-6.38-3.65Z" transform="translate(-20 -20)"/><path d="M73.21,118.17c-5.42,0-5.52-3-5.52-9V91.5h5.42c2.56,0,4.62.46,6.21,3.65,10.05,20.42,11.51,23.78,16,23.78a36.8,36.8,0,0,0,5.12-.33v-.47c-4.79-1.59-6.45-4.62-13.9-19-1.67-3.19-3.59-6.71-5.82-8.21V90.8C87.31,89,93.86,84.08,93.86,76c0-9.24-7.35-15.49-19-15.49H57.48V61c5.42,0,5.75,3,5.75,9v39.27c0,5.92-.33,9-5.75,9v.46H73.21ZM67.69,64.69c0-1.93,1.13-2.86,3-2.86h3.76c10,0,14.43,6.22,14.43,14.53,0,8.62-4.62,13.9-14.53,13.9H67.65V64.69Z" transform="translate(-20 -20)"/><path d="M144.17,106.13h-.47c-4.32,10.21-6.45,11.24-15.09,11.24H116.47c-2.4,0-3.19-1.27-3.19-3.83V89h11.17c6.85,0,8,2.8,9.18,8.22h.46V80.09h-.46c-1.13,5.92-2.33,7.65-9.18,7.65H113.28V61.8h14c8.61,0,10.71,1,14.37,9.81h.46l-1-11.11H103.07V61c5.42,0,5.75,3,5.75,8.94v39.28c0,5.92-.33,8.94-5.75,8.94v.47h39.34Z" transform="translate(-20 -20)"/><path d="M162.13,118.17c-6,0-6.79-4.63-6.79-11.24V65.49l34.15,53.8H190V74.1c0-8.31.8-13.1,6-13.1v-.46h-14.7V61c6.06,0,7.19,4.79,7.19,13.1v35.29l-31-48.85H146.86V61c5.42.63,7,3,7,8.15v37.74c0,6.62-1.26,11.24-7,11.24v.47h15.23v-.43Z" transform="translate(-20 -20)"/><path d="M200,60.54V61c5.42,0,5.75,3,5.75,9v39.27c0,5.92-.33,9-5.75,9v.46h21.88c17.39,0,29-11.64,29-29.86,0-17.63-10.31-28.27-28.67-28.27H200Zm45.76,28.73c0,17.49-8.71,28.1-23.71,28.1-9.25,0-11.81-1.27-11.81-5.12V64.69c0-1.93,1.13-2.86,3-2.86h8.61C237,61.83,245.76,72.61,245.76,89.27Z" transform="translate(-20 -20)"/><path d="M269,118.17c-5.42,0-5.52-3-5.52-9V91.5h5.42c2.56,0,4.62.46,6.21,3.65,10.05,20.42,11.51,23.78,16,23.78a36.8,36.8,0,0,0,5.12-.33v-.47c-4.79-1.59-6.45-4.62-13.9-19-1.67-3.19-3.59-6.71-5.82-8.21V90.8C283.14,89,289.69,84.08,289.69,76c0-9.24-7.35-15.49-19-15.49H253.31V61c5.42,0,5.75,3,5.75,9v39.27c0,5.92-.33,9-5.75,9v.46H269Zm-5.52-53.48c0-1.93,1.13-2.86,3-2.86h3.76c10,0,14.43,6.22,14.43,14.53,0,8.62-4.62,13.9-14.53,13.9h-6.72V64.69Z" transform="translate(-20 -20)"/><path d="M339.5,106.13c-4.32,10.21-6.45,11.24-15.1,11.24H312.3c-2.4,0-3.19-1.27-3.19-3.83V89h11.17c6.85,0,8.05,2.8,9.18,8.22h.46V80.09h-.46c-1.13,5.92-2.33,7.65-9.18,7.65H309.11V61.8h14c8.61,0,10.71,1,14.37,9.81H338L337,60.5H298.9V61c5.42,0,5.75,3,5.75,8.94v39.28c0,5.92-.33,8.94-5.75,8.94v.47h39.34L340,106.06h-.5Z" transform="translate(-20 -20)"/><path d="M51.09,177.82c-3.12,4.22-6.55,7.92-8.15,7.92-1.43,0-.79-3-.56-4.06L54,126.78h-.33l-8.15,2.06-.07.46c2.56.47,3.53,2.4,2.4,7.52l-9.71,45.79c-.74,3.19-1.27,7.52,1.92,7.52s7.42-4.46,11.41-12Z" transform="translate(-20 -20)"/><path d="M86.31,152.05c0-3.26-2.16-5.65-7.65-5.65-14.76,0-24.51,17.89-24.51,31.12,0,8.72,4.16,12.61,10,12.61s12-4,17.73-12.54l-.47-.33c-4.79,5.92-10.44,9.81-15.66,9.81-4.62,0-7.35-3.2-7.35-10.55a35.09,35.09,0,0,1,.87-7.51C75.6,163.92,86.31,159.37,86.31,152.05Zm-9-4.56c3.43,0,4.46,2.23,4.46,4.79,0,7-7.75,10.38-22.18,15.33C62.66,156.74,70.41,147.49,77.36,147.49Z" transform="translate(-20 -20)"/><path d="M120.59,187.86h-8.48c-2.39,0-3.19-1.26-3.19-3.82V140.48c0-5.92.33-8.95,5.75-8.95V131h-16v.47c5.42,0,5.75,3,5.75,8.95v39.27c0,5.92-.33,8.94-5.75,8.94v.47h35.58l1.76-12.54h-.46C131.27,186.83,129.21,187.86,120.59,187.86Z" transform="translate(-20 -20)"/><path d="M150.92,168H171l4.32,12.61c1.93,5.58.57,7.74-3.92,8v.47h15.33v-.47c-3.43-.33-4.86-2.86-7.25-9.74l-16.7-48.52h-.63L147,174.46c-3.36,9.65-5.42,13.9-9.24,14.2v.47h12.83v-.47c-6.22-.33-5.25-4.32-2.06-13.73Zm10-29.46,9.41,27.53H151.55Z" transform="translate(-20 -20)"/><path d="M218.82,169.68c-1.66-3.2-3.59-6.72-5.82-8.22v-.17c6.62-1.82,13.17-6.71,13.17-14.76,0-9.24-7.35-15.5-19-15.5H189.79v.47c5.42,0,5.76,3,5.76,8.95v39.27c0,5.92-.34,8.94-5.76,8.94v.47h15.73v-.47c-5.42,0-5.52-3-5.52-8.94V162h5.42c2.56,0,4.62.47,6.22,3.66,10,20.42,11.51,23.78,16,23.78a36.68,36.68,0,0,0,5.12-.33v-.47C227.9,187.07,226.24,184,218.82,169.68Zm-12.13-9H200V135.19c0-1.93,1.13-2.86,3-2.86h3.76c10,0,14.43,6.22,14.43,14.53C221.22,155.48,216.56,160.73,206.69,160.73Z" transform="translate(-20 -20)"/><path d="M267.17,163.92c4.63.33,5.26,3,5.26,9v8.61c0,4.62-6.85,7.51-14.53,7.51-12.14,0-21.09-12.43-21.09-28.73,0-16.76,8.95-29.06,20.76-29.06,8.94,0,13.63,2.63,17.88,10.94h.47v-7.25c-3.82-2.33-9.41-4.79-18.35-4.79-15.17,0-25.88,12.31-25.88,30.16,0,17.23,10.55,29.87,26,29.87a34.53,34.53,0,0,0,19.16-5.76v-11.5c0-5.92.16-8.62,2.56-9v-.46H267.14v.46Z" transform="translate(-20 -20)"/><path d="M306.51,187.86H294.38c-2.4,0-3.2-1.26-3.2-3.82V159.53h11.18c6.85,0,8,2.8,9.18,8.22H312V150.59h-.46c-1.14,5.92-2.33,7.65-9.18,7.65H291.18V132.3h14c8.61,0,10.7,1,14.36,9.81h.47l-1-11.11H281v.47c5.41,0,5.75,3,5.75,8.94v39.27c0,5.92-.34,8.95-5.75,8.95v.47h39.33l1.77-12.54h-.47C317.29,186.83,315.13,187.86,306.51,187.86Z" transform="translate(-20 -20)"/></svg>