<svg id="Layer_1" data-name="Layer 1" xmlns="http://www.w3.org/2000/svg" viewBox="0 0 320 212.06"><path d="M76,34.23a4.91,4.91,0,0,0,5.16-5v-9H78.76v8.85a2.75,2.75,0,1,1-5.49,0V20.23H70.85v9A4.93,4.93,0,0,0,76,34.23Z" transform="translate(-20 -20)"/><path d="M88,24.72,93.49,34h2.23V20.23H93.29v9.18l-5.42-9.18H85.58V34H88Z" transform="translate(-20 -20)"/><path d="M108.85,31.81H102.6V28.35h5.29V26.12H102.6V22.43h6.05v-2.2h-8.44V34h8.64Z" transform="translate(-20 -20)"/><path d="M123.55,34.23A6.86,6.86,0,0,0,129,31.57l-1.83-1.39A4.4,4.4,0,0,1,123.62,32,4.65,4.65,0,0,1,119,27.15a4.7,4.7,0,0,1,4.59-4.86,4.38,4.38,0,0,1,3.56,1.8l1.83-1.4A6.75,6.75,0,0,0,123.55,20a7.12,7.12,0,0,0,0,14.23Z" transform="translate(-20 -20)"/><path d="M138.18,34.23a7.1,7.1,0,1,0-7-7.08A7,7,0,0,0,138.18,34.23Zm0-12a4.68,4.68,0,0,1,4.56,4.86,4.55,4.55,0,1,1-9.08,0A4.65,4.65,0,0,1,138.18,22.26Z" transform="translate(-20 -20)"/><path d="M156.57,31.81h-5.35V20.23h-2.43V34h7.78Z" transform="translate(-20 -20)"/><path d="M167.35,31.81H162V20.23h-2.42V34h7.78Z" transform="translate(-20 -20)"/><path d="M173.13,30.61h5.39l1.2,3.36h2.56l-5.16-13.74H174.5L169.38,34H172Zm2.7-7.68,2,5.58h-3.93Z" transform="translate(-20 -20)"/><path d="M195.05,30.08a3.34,3.34,0,0,0-2.53-3.43,2.84,2.84,0,0,0,1.8-2.86c0-2.09-1.53-3.52-3.89-3.52h-5.36V34h5.75A3.91,3.91,0,0,0,195.05,30.08Zm-7.58-7.65h2.82a1.5,1.5,0,0,1,1.57,1.69,1.5,1.5,0,0,1-1.57,1.67h-2.82Zm0,9.38v-4h3a1.94,1.94,0,0,1,2.1,2,2,2,0,0,1-2.16,2Z" transform="translate(-20 -20)"/><path d="M204.76,34.23a7.1,7.1,0,1,0-7-7.08A7,7,0,0,0,204.76,34.23Zm0-12a4.68,4.68,0,0,1,4.56,4.86,4.55,4.55,0,1,1-9.08,0A4.7,4.7,0,0,1,204.72,22.26Z" transform="translate(-20 -20)"/><path d="M217.79,29H219l3.39,5h2.86l-3.55-5.09a4.14,4.14,0,0,0,3.39-4.25,4.15,4.15,0,0,0-4.36-4.43h-5.38V34h2.42Zm0-6.55h2.76a2.11,2.11,0,0,1,2.13,2.26,2.14,2.14,0,0,1-2.43,2.23h-2.46Z" transform="translate(-20 -20)"/><path d="M231.33,30.61h5.38l1.2,3.36h2.56l-5.15-13.74h-2.63L227.57,34h2.59ZM234,22.93l2,5.58h-3.92Z" transform="translate(-20 -20)"/><path d="M244.66,34h2.43V22.43H251v-2.2H240.74v2.2h3.92Z" transform="translate(-20 -20)"/><path d="M256.43,20.23H254V34h2.42Z" transform="translate(-20 -20)"/><path d="M267,34.23a7.1,7.1,0,1,0-7-7.08A7,7,0,0,0,267,34.23Zm0-12a4.67,4.67,0,0,1,4.55,4.86,4.54,4.54,0,1,1-9.07,0A4.69,4.69,0,0,1,267,22.26Z" transform="translate(-20 -20)"/><path d="M280.08,24.72,285.53,34h2.23V20.23h-2.43v9.18l-5.42-9.18h-2.29V34h2.46Z" transform="translate(-20 -20)"/><path d="M94.32,225.21,88.94,216h-2.3v13.73h2.43v-9.24l5.49,9.24h2.22V216H94.32Z" transform="translate(-20 -20)"/><path d="M104.7,216l-5.16,13.73h2.6l1.16-3.35h5.39l1.19,3.35h2.56L107.29,216Zm-.67,8.25,2-5.59,2,5.59Z" transform="translate(-20 -20)"/><path d="M122.62,224.88a2.75,2.75,0,1,1-5.49,0V216h-2.42V225a5.17,5.17,0,0,0,10.34,0V216h-2.43Z" transform="translate(-20 -20)"/><path d="M128,218.19h3.92v11.57h2.43V218.19h3.95V216H128Z" transform="translate(-20 -20)"/><path d="M143.67,216h-2.43v13.73h2.43Z" transform="translate(-20 -20)"/><path d="M161.26,222.91a7,7,0,1,0-7,7.09,6.69,6.69,0,0,0,2-.3l1.46,2.36,1.76-1.07-1.36-2.22A7,7,0,0,0,161.26,222.91ZM157,226.8l-1.46-2.36-1.76,1.07,1.33,2.16a7.41,7.41,0,0,1-.8.07,4.85,4.85,0,0,1,0-9.68,4.67,4.67,0,0,1,4.55,4.85A4.88,4.88,0,0,1,157,226.8Z" transform="translate(-20 -20)"/><path d="M172.7,224.88a2.75,2.75,0,1,1-5.49,0V216h-2.42V225a5.17,5.17,0,0,0,10.34,0V216H172.7Z" transform="translate(-20 -20)"/><path d="M182,224.11h5.25v-2.19H182v-3.73h6V216h-8.44v13.73h8.64v-2.19H182Z" transform="translate(-20 -20)"/><path d="M204.52,224.88a2.74,2.74,0,1,1-5.48,0V216h-2.43V225A5.17,5.17,0,0,0,207,225V216h-2.43Z" transform="translate(-20 -20)"/><path d="M219.06,225.21,213.64,216h-2.3v13.73h2.46v-9.24l5.46,9.24h2.22V216h-2.42Z" transform="translate(-20 -20)"/><path d="M228.4,216H226v13.73h2.43Z" transform="translate(-20 -20)"/><path d="M246,222.91a7,7,0,1,0-7,7.09,6.69,6.69,0,0,0,2-.3l1.46,2.36,1.76-1.07-1.36-2.22A7,7,0,0,0,246,222.91Zm-4.29,3.89-1.46-2.36-1.76,1.07,1.33,2.16a7.41,7.41,0,0,1-.8.07,4.85,4.85,0,0,1,0-9.68,4.67,4.67,0,0,1,4.55,4.85A4.88,4.88,0,0,1,241.7,226.8Z" transform="translate(-20 -20)"/><path d="M257.4,224.88a2.75,2.75,0,1,1-5.49,0V216h-2.43V225a5.18,5.18,0,0,0,10.35,0V216H257.4Z" transform="translate(-20 -20)"/><path d="M266.64,224.11h5.29v-2.19h-5.29v-3.73h6.06V216h-8.45v13.73h8.64v-2.19h-6.25Z" transform="translate(-20 -20)"/><path d="M30.21,109.25V92.16a23.88,23.88,0,0,0,8.21,1.43c10.31,0,18-6.62,18-16.93,0-10-7.42-16.12-18.76-16.12H20V61c5.42,0,5.75,3,5.75,9v39.27c0,5.92-.33,9-5.75,9v.46H36.29v-.46C30.84,118.2,30.21,115.17,30.21,109.25Zm0-44.52c0-1.93,1.13-2.86,3-2.86h4c9.24,0,14.19,5.58,14.19,14.83C51.42,86.44,45.9,92,36.59,92c-6.38,0-6.38-2.73-6.38-3.66Z" transform="translate(-20 -20)"/><path d="M73.21,118.2c-5.42,0-5.52-3-5.52-9V91.53h5.42c2.56,0,4.62.46,6.21,3.66C89.4,115.6,90.83,119,95.29,119a35.29,35.29,0,0,0,5.12-.33v-.46c-4.79-1.6-6.49-4.63-13.9-19C84.84,96,82.92,92.46,80.69,91v-.13C87.31,89,93.86,84.11,93.86,76.07c0-9.25-7.35-15.5-19-15.5H57.48V61c5.42,0,5.75,3,5.75,8.94v39.27c0,5.92-.33,9-5.75,9v.46H73.21ZM67.69,64.73c0-1.93,1.13-2.86,3-2.86h3.76c10,0,14.43,6.21,14.43,14.53,0,8.61-4.62,13.9-14.53,13.9H67.65V64.73Z" transform="translate(-20 -20)"/><path d="M103.07,118.2v.46h39.34l1.76-12.53h-.47c-4.29,10.21-6.45,11.24-15.09,11.24H116.47c-2.4,0-3.19-1.27-3.19-3.83V89h11.17c6.85,0,8,2.8,9.18,8.22h.46V80.09h-.46c-1.13,5.92-2.33,7.65-9.18,7.65H113.28V61.8h14c8.61,0,10.71,1,14.37,9.81h.46l-1-11.11H103.07V61c5.42,0,5.75,3,5.75,8.94v39.28C108.82,115.17,108.49,118.2,103.07,118.2Z" transform="translate(-20 -20)"/><path d="M190,74.14c0-8.32.8-13.1,6-13.1v-.47h-14.7V61c6.06,0,7.19,4.78,7.19,13.1v35.28l-31-48.85H146.86V61c5.42.63,7,3,7,8.14v37.75c0,6.61-1.26,11.24-7,11.24v.46h15.23v-.46c-6,0-6.78-4.63-6.78-11.24V65.52l34.15,53.81h.47V74.14Z" transform="translate(-20 -20)"/><path d="M200,118.2v.46h21.88c17.39,0,29-11.63,29-29.86,0-17.62-10.31-28.26-28.67-28.26H200V61c5.42,0,5.75,3,5.75,9v39.27C205.75,115.17,205.42,118.2,200,118.2Zm10.24-53.47c0-1.93,1.13-2.86,3-2.86h8.61c15.1,0,23.88,10.77,23.88,27.46,0,17.49-8.71,28.1-23.71,28.1-9.28,0-11.81-1.26-11.81-5.12Z" transform="translate(-20 -20)"/><path d="M269,118.2c-5.42,0-5.52-3-5.52-9V91.53h5.42c2.56,0,4.62.46,6.22,3.66,10,20.41,11.5,23.77,16,23.77a35.63,35.63,0,0,0,5.12-.33v-.46c-4.79-1.6-6.45-4.63-13.9-19-1.66-3.2-3.59-6.72-5.82-8.22v-.13c6.62-1.83,13.17-6.72,13.17-14.76,0-9.25-7.35-15.5-19-15.5H253.31V61c5.42,0,5.75,3,5.75,8.94v39.27c0,5.92-.33,9-5.75,9v.46H269Zm-5.52-53.47c0-1.93,1.13-2.86,3-2.86h3.76c10,0,14.43,6.21,14.43,14.53,0,8.61-4.62,13.9-14.53,13.9h-6.72V64.73Z" transform="translate(-20 -20)"/><path d="M339.5,106.16c-4.32,10.21-6.45,11.24-15.1,11.24H312.3c-2.39,0-3.19-1.26-3.19-3.82V89.07h11.17c6.85,0,8.05,2.79,9.18,8.21h.46V80.12h-.46c-1.13,5.92-2.33,7.65-9.18,7.65H309.11V61.83h14c8.61,0,10.71,1,14.37,9.81H338l-1-11.1H298.9V61c5.42,0,5.75,3,5.75,9v39.27c0,5.92-.33,9-5.75,9v.46h39.34L340,106.09h-.5Z" transform="translate(-20 -20)"/><path d="M54,126.78h-.33l-8.15,2.06-.07.46c2.56.47,3.53,2.4,2.4,7.52l-9.71,45.82c-.74,3.2-1.27,7.52,1.92,7.52s7.42-4.46,11.41-12l-.4-.34c-3.12,4.23-6.55,7.92-8.15,7.92-1.43,0-.79-3-.56-4.06Z" transform="translate(-20 -20)"/><path d="M78.63,146.4c-14.77,0-24.51,17.89-24.51,31.12,0,8.72,4.15,12.61,10,12.61s12-4,17.72-12.54l-.46-.33c-4.79,5.92-10.44,9.81-15.66,9.81-4.63,0-7.35-3.2-7.35-10.55a35.73,35.73,0,0,1,.86-7.51c16.3-5.12,27-9.64,27-17C86.31,148.79,84.15,146.4,78.63,146.4Zm-19,21.25c3-10.84,10.77-20.12,17.72-20.12,3.43,0,4.46,2.23,4.46,4.79C81.82,159.33,74.07,162.69,59.64,167.65Z" transform="translate(-20 -20)"/><path d="M136.05,176.66h-.46c-4.32,10.21-6.38,11.24-15,11.24h-8.48c-2.39,0-3.19-1.27-3.19-3.83V140.51c0-5.92.33-8.94,5.75-8.94v-.5h-16v.46c5.42,0,5.75,3,5.75,8.95v39.27c0,5.92-.33,8.95-5.75,8.95v.46h35.62Z" transform="translate(-20 -20)"/><path d="M171.44,188.7v.46h15.33v-.46c-3.43-.34-4.86-2.86-7.25-9.75l-16.7-48.52h-.63L147,174.5c-3.36,9.64-5.42,13.9-9.25,14.2v.46h12.84v-.46c-6.22-.34-5.25-4.33-2.06-13.74l2.39-7h20.12l4.32,12.61C177.26,186.24,175.89,188.4,171.44,188.7Zm-19.89-22.58,9.35-27.54,9.41,27.54Z" transform="translate(-20 -20)"/><path d="M232.69,189.2v-.47c-4.79-1.6-6.45-4.62-13.9-19-1.66-3.19-3.59-6.72-5.82-8.21v-.2c6.62-1.83,13.17-6.72,13.17-14.77,0-9.27-7.35-15.49-19-15.49H189.76v.46c5.42,0,5.75,3,5.75,8.95v39.27c0,5.92-.33,8.95-5.75,8.95v.46h15.73v-.46c-5.42,0-5.52-3-5.52-8.95V162h5.42c2.56,0,4.62.46,6.22,3.65,10,20.42,11.5,23.78,16,23.78A39.31,39.31,0,0,0,232.69,189.2Zm-26-28.44H200V135.22c0-1.93,1.13-2.86,3-2.86h3.76c10,0,14.43,6.22,14.43,14.54C221.22,155.51,216.56,160.76,206.68,160.76Z" transform="translate(-20 -20)"/><path d="M267.14,164c4.62.33,5.25,3,5.25,8.94v8.61c0,4.62-6.84,7.52-14.53,7.52-12.13,0-21.08-12.44-21.08-28.73,0-16.76,8.95-29.07,20.75-29.07,9,0,13.64,2.63,17.89,10.94h.47v-7.24c-3.83-2.33-9.41-4.79-18.36-4.79-15.16,0-25.87,12.3-25.87,30.16,0,17.22,10.54,29.86,26,29.86a34.61,34.61,0,0,0,19.16-5.75V172.9c0-5.92.16-8.61,2.56-8.94v-.47H267.07V164Z" transform="translate(-20 -20)"/><path d="M306.51,187.9H294.38c-2.4,0-3.2-1.27-3.2-3.83v-24.5h11.18c6.85,0,8,2.79,9.18,8.21H312V150.62h-.46c-1.14,5.92-2.33,7.65-9.18,7.65H291.18V132.33h14c8.61,0,10.7,1,14.36,9.81h.47l-1-11.11H281v.47c5.41,0,5.75,3,5.75,8.95v39.27c0,5.92-.34,8.94-5.75,8.94v.47h39.33l1.77-12.54h-.47C317.29,186.87,315.13,187.9,306.51,187.9Z" transform="translate(-20 -20)"/></svg>