<svg id="Layer_1" data-name="Layer 1" xmlns="http://www.w3.org/2000/svg" viewBox="0 0 320 212.86"><path d="M25.15,38.52a4.87,4.87,0,0,0,5.12-5V24.65H27.86v8.78a2.57,2.57,0,0,1-2.71,2.81,2.58,2.58,0,0,1-2.74-2.81V24.65H20v8.88A4.9,4.9,0,0,0,25.15,38.52Z" transform="translate(-20 -20)"/><path d="M36.83,29.11l5.45,9.18h2.21V24.65H42.08v9.11L36.7,24.65H34.42V38.29h2.41Z" transform="translate(-20 -20)"/><path d="M50.76,35h5.38l1.19,3.34h2.54L54.76,24.65H52.15L47,38.29h2.58Zm2.71-7.66,2,5.55H51.49Z" transform="translate(-20 -20)"/><path d="M73,38.52a6.83,6.83,0,0,0,5.42-2.64l-1.82-1.39a4.35,4.35,0,0,1-3.53,1.78,4.62,4.62,0,0,1-4.56-4.78,4.67,4.67,0,0,1,4.56-4.82,4.35,4.35,0,0,1,3.53,1.78l1.82-1.39A6.75,6.75,0,0,0,73,24.42a7.05,7.05,0,0,0,0,14.1Z" transform="translate(-20 -20)"/><path d="M87.37,38.52a7.05,7.05,0,1,0-6.93-7A7,7,0,0,0,87.37,38.52Zm0-11.85a4.64,4.64,0,0,1,4.53,4.82,4.51,4.51,0,1,1-9,0A4.65,4.65,0,0,1,87.33,26.67Z" transform="translate(-20 -20)"/><path d="M105.42,36.14h-5.31V24.65H97.7V38.29h7.72Z" transform="translate(-20 -20)"/><path d="M110.93,35h5.38l1.19,3.34H120l-5.11-13.64h-2.61L107.2,38.29h2.58Zm2.71-7.66,2,5.55h-3.9Z" transform="translate(-20 -20)"/><path d="M132.49,34.42A3.32,3.32,0,0,0,130,31a2.8,2.8,0,0,0,1.78-2.83c0-2.08-1.52-3.5-3.86-3.5h-5.32V38.32h5.71A3.9,3.9,0,0,0,132.49,34.42ZM125,26.8h2.81a1.49,1.49,0,0,1,1.55,1.68,1.48,1.48,0,0,1-1.55,1.65H125Zm0,9.34v-4h3a1.93,1.93,0,0,1,2.08,2,2,2,0,0,1-2.15,2H125Z" transform="translate(-20 -20)"/><path d="M141.93,38.52a7.05,7.05,0,1,0-6.94-7A7,7,0,0,0,141.93,38.52Zm0-11.85a4.64,4.64,0,0,1,4.52,4.82,4.51,4.51,0,1,1-9,0A4.61,4.61,0,0,1,141.93,26.67Z" transform="translate(-20 -20)"/><path d="M154.7,33.33h1.22l3.37,5h2.84l-3.53-5A4.12,4.12,0,0,0,162,29a4.1,4.1,0,0,0-4.32-4.39h-5.35V38.25h2.41Zm0-6.53h2.74A2.09,2.09,0,0,1,159.55,29a2.12,2.12,0,0,1-2.41,2.22H154.7Z" transform="translate(-20 -20)"/><path d="M167.9,35h5.35l1.19,3.34H177l-5.12-13.64h-2.6l-5.12,13.64h2.57Zm2.71-7.66,1.95,5.55h-3.9Z" transform="translate(-20 -20)"/><path d="M185.16,38.52a6.82,6.82,0,0,0,5.42-2.64l-1.82-1.39a4.32,4.32,0,0,1-3.53,1.78,4.61,4.61,0,0,1-4.55-4.78,4.66,4.66,0,0,1,4.55-4.82,4.32,4.32,0,0,1,3.53,1.78l1.82-1.39a6.73,6.73,0,0,0-5.42-2.64,7.05,7.05,0,0,0,0,14.1Z" transform="translate(-20 -20)"/><path d="M196.06,24.65h-2.41V38.29h2.41Z" transform="translate(-20 -20)"/><path d="M206.35,38.52a7.05,7.05,0,1,0-6.93-7A7,7,0,0,0,206.35,38.52Zm0-11.85a4.64,4.64,0,0,1,4.53,4.82,4.51,4.51,0,1,1-9,0A4.61,4.61,0,0,1,206.35,26.67Z" transform="translate(-20 -20)"/><path d="M209.85,20h-2.44l-1.88,3.2h1.85Z" transform="translate(-20 -20)"/><path d="M219.1,29.11l5.44,9.18h2.21V24.65h-2.41v9.11L219,24.65h-2.27V38.29h2.41Z" transform="translate(-20 -20)"/><path d="M238.21,38.29h2.41V26.8h3.92V24.65H234.31V26.8h3.9Z" transform="translate(-20 -20)"/><path d="M248.31,35h5.34l1.19,3.34h2.54l-5.11-13.64h-2.61l-5.12,13.64h2.58ZM251,27.29l2,5.55H249Z" transform="translate(-20 -20)"/><path d="M262.33,29.11l5.45,9.18H270V24.65h-2.41v9.11l-5.38-9.11h-2.27V38.29h2.4Z" transform="translate(-20 -20)"/><path d="M287.39,20H285L283,23.2h1.88Z" transform="translate(-20 -20)"/><path d="M283.89,38.52a4.87,4.87,0,0,0,5.12-5V24.65H286.6v8.78a2.73,2.73,0,1,1-5.45,0V24.65h-2.41v8.88A4.9,4.9,0,0,0,283.89,38.52Z" transform="translate(-20 -20)"/><path d="M295.61,29.11,301,38.29h2.21V24.65h-2.41v9.11l-5.38-9.11h-2.28V38.29h2.45Z" transform="translate(-20 -20)"/><path d="M309.9,24.65h-2.41V38.29h2.41Z" transform="translate(-20 -20)"/><path d="M320.23,38.52a6.81,6.81,0,0,0,5.41-2.64l-1.81-1.39a4.36,4.36,0,0,1-3.54,1.78,4.61,4.61,0,0,1-4.55-4.78,4.67,4.67,0,0,1,4.55-4.82,4.36,4.36,0,0,1,3.54,1.78l1.81-1.39a6.77,6.77,0,0,0-5.41-2.64,7.05,7.05,0,0,0,0,14.1Z" transform="translate(-20 -20)"/><path d="M330.92,35h5.35l1.19,3.34H340l-5.12-13.64h-2.6l-5.12,13.64h2.57Zm2.68-7.66,1.94,5.55h-3.89Z" transform="translate(-20 -20)"/><path d="M69,221a4.36,4.36,0,0,1,3.54,1.78l1.81-1.38A6.74,6.74,0,0,0,69,218.77a7,7,0,0,0,0,14.09,6.81,6.81,0,0,0,5.41-2.64l-1.81-1.39A4.37,4.37,0,0,1,69,230.62,4.81,4.81,0,0,1,69,221Z" transform="translate(-20 -20)"/><path d="M83.27,218.73a7.05,7.05,0,1,0,6.93,7.07A7,7,0,0,0,83.27,218.73Zm0,11.85a4.81,4.81,0,0,1,0-9.6,4.81,4.81,0,0,1,0,9.6Z" transform="translate(-20 -20)"/><path d="M105.39,219,101,228.37,96.54,219H94.43l-1.65,13.67h2.41l1.12-9.14,3.7,7.59H102l3.69-7.63,1.09,9.18h2.41L107.47,219Z" transform="translate(-20 -20)"/><path d="M118.66,218.73a7.05,7.05,0,1,0,6.93,7.07A7,7,0,0,0,118.66,218.73Zm0,11.85a4.81,4.81,0,0,1,0-9.6,4.81,4.81,0,0,1,0,9.6Z" transform="translate(-20 -20)"/><path d="M138.69,224.81l-1.62-.46c-1.55-.44-1.68-1.23-1.68-1.59a2,2,0,0,1,2.15-1.85,2,2,0,0,1,2.11,2h2.41c0-2.54-1.95-4.09-4.46-4.09s-4.62,1.65-4.62,4.06c0,1.18.53,2.93,3.43,3.69l1.72.47c1.16.33,2,.85,2,1.81a2,2,0,0,1-2.28,1.91,2.3,2.3,0,0,1-2.54-2h-2.41c0,2.31,2,4.16,4.85,4.16,2.68,0,4.76-1.65,4.76-4.16C142.49,226.52,140.84,225.4,138.69,224.81Z" transform="translate(-20 -20)"/><path d="M153.58,227.78a2.73,2.73,0,1,1-5.45,0V219h-2.41v8.88a5.14,5.14,0,0,0,10.27,0V219h-2.41Z" transform="translate(-20 -20)"/><path d="M163.45,221.14h3.89v11.49h2.41V221.14h3.9V219h-10.2Z" transform="translate(-20 -20)"/><path d="M186.09,223.35a4.11,4.11,0,0,0-4.32-4.39h-5.35V232.6h2.41v-5h1.22l3.37,5h2.84l-3.54-5A4.12,4.12,0,0,0,186.09,223.35Zm-7.26,2.25v-4.49h2.74a2.09,2.09,0,0,1,2.11,2.24,2.12,2.12,0,0,1-2.41,2.22h-2.44Z" transform="translate(-20 -20)"/><path d="M192.06,219h-2.41V232.6h2.41Z" transform="translate(-20 -20)"/><path d="M201.83,219h-5.51V232.6h2.41v-4.89h3.1a4.38,4.38,0,0,0,0-8.75Zm-.13,6.61h-3v-4.43h3a2,2,0,0,1,1.94,2.21A2,2,0,0,1,201.7,225.57Z" transform="translate(-20 -20)"/><path d="M216.82,227.78a2.73,2.73,0,1,1-5.45,0V219H209v8.88a5.14,5.14,0,0,0,10.27,0V219h-2.41Z" transform="translate(-20 -20)"/><path d="M225.83,219h-2.41v13.67h7.69v-2.18h-5.28Z" transform="translate(-20 -20)"/><path d="M238,219l-5.11,13.64h2.57l1.15-3.34H242l1.18,3.34h2.54L240.65,219Zm-.66,8.22,2-5.54,1.95,5.54Z" transform="translate(-20 -20)"/><path d="M254,221a4.35,4.35,0,0,1,3.53,1.78l1.81-1.38a6.74,6.74,0,0,0-5.41-2.64,7,7,0,0,0,0,14.09,6.81,6.81,0,0,0,5.41-2.64l-1.81-1.39a4.36,4.36,0,0,1-3.53,1.79,4.81,4.81,0,0,1,0-9.61Z" transform="translate(-20 -20)"/><path d="M264.78,219h-2.41V232.6h2.41Z" transform="translate(-20 -20)"/><path d="M275.11,218.73A7.05,7.05,0,1,0,282,225.8,7,7,0,0,0,275.11,218.73Zm0,11.85a4.81,4.81,0,0,1,0-9.6,4.81,4.81,0,0,1,0,9.6Z" transform="translate(-20 -20)"/><path d="M278.61,214.34h-2.44l-1.89,3.17h1.85Z" transform="translate(-20 -20)"/><path d="M293.06,228.07,287.72,219h-2.28v13.67h2.41v-9.21l5.45,9.21h2.17V219h-2.41Z" transform="translate(-20 -20)"/><path d="M31,113v-17a23.88,23.88,0,0,0,8.16,1.42C49.41,97.47,57,90.9,57,80.67c0-10-7.36-16-18.62-16H20.89v.46c5.38,0,5.71,3.07,5.71,8.91v39c0,5.88-.33,8.88-5.71,8.88v.46H37.06v-.46C31.65,121.89,31,118.89,31,113Zm0-44.19C31,66.9,32.15,66,34,66h4c9.17,0,14.09,5.54,14.09,14.72,0,9.67-5.48,15.22-14.72,15.22C31,95.92,31,93.21,31,92.28Z" transform="translate(-20 -20)"/><path d="M100.73,122.35v-.46C96,120.31,94.33,117.3,86.94,103c-1.65-3.16-3.57-6.66-5.78-8.15v-.16c6.57-1.82,13.07-6.67,13.07-14.66,0-9.21-7.29-15.38-18.85-15.38H58.12v.46c5.38,0,5.71,3,5.71,8.88v39c0,5.88-.33,8.88-5.71,8.88v.46H73.73v-.46c-5.38,0-5.47-3-5.47-8.88V95.42h5.38c2.54,0,4.58.46,6.17,3.63,10,20.27,11.42,23.6,15.84,23.6A32.2,32.2,0,0,0,100.73,122.35ZM74.89,94.17H68.22V68.82c0-1.92,1.12-2.84,3-2.84H75c9.9,0,14.32,6.17,14.32,14.42C89.31,88.92,84.73,94.17,74.89,94.17Z" transform="translate(-20 -20)"/><path d="M144.14,109.94h-.46c-4.3,10.14-6.41,11.16-15,11.16h-12c-2.37,0-3.17-1.25-3.17-3.8V93h11.1c6.79,0,8,2.77,9.11,8.15h.46v-17h-.46c-1.13,5.87-2.32,7.59-9.11,7.59h-11.1V66H127.4c8.55,0,10.63,1,14.26,9.73h.46l-1-11H103.34v.46c5.38,0,5.71,3,5.71,8.88v39c0,5.88-.33,8.88-5.71,8.88v.46h39Z" transform="translate(-20 -20)"/><path d="M189.59,78.16c0-8.25.79-13,6-13v-.46H181v.46c6,0,7.13,4.76,7.13,13v35L157.31,64.69H146.78v.46c5.38.63,7,2.94,7,8.09V110.7c0,6.57-1.25,11.16-7,11.16v.46H161.9v-.46c-5.94,0-6.74-4.59-6.74-11.16V69.61l33.9,53.4h.46V78.16Z" transform="translate(-20 -20)"/><path d="M199.56,121.89v.46h21.71c17.27,0,28.75-11.55,28.75-29.64,0-17.49-10.23-28-28.45-28h-22v.46c5.38,0,5.71,3,5.71,8.88v39C205.27,118.89,204.94,121.89,199.56,121.89Zm10.13-53.07c0-1.92,1.12-2.84,3-2.84h8.55c15,0,23.7,10.69,23.7,27.26,0,17.36-8.65,27.89-23.53,27.89-9.18,0-11.72-1.25-11.72-5.08Z" transform="translate(-20 -20)"/><path d="M275.51,94.86v-.17C282.07,92.88,288.58,88,288.58,80c0-9.21-7.3-15.38-18.85-15.38H252.47v.46c5.38,0,5.71,3,5.71,8.88v39c0,5.88-.33,8.88-5.71,8.88v.46h15.61v-.46c-5.38,0-5.48-3-5.48-8.88V95.39H268c2.54,0,4.59.46,6.17,3.63,10,20.26,11.42,23.6,15.84,23.6a36.3,36.3,0,0,0,5.09-.33v-.46c-4.75-1.59-6.41-4.59-13.8-18.85C279.63,99.88,277.72,96.38,275.51,94.86Zm-6.24-.69H262.6V68.82c0-1.92,1.12-2.84,3-2.84h3.73c9.9,0,14.33,6.17,14.33,14.42C283.66,88.92,279.07,94.17,269.27,94.17Z" transform="translate(-20 -20)"/><path d="M323.07,121.1H311c-2.38,0-3.17-1.25-3.17-3.8V93h11.09c6.8,0,8,2.77,9.11,8.15h.46v-17h-.46c-1.12,5.87-2.31,7.59-9.11,7.59H307.85V66h13.93c8.55,0,10.63,1,14.26,9.73h.46l-1-11H297.72v.46c5.38,0,5.71,3,5.71,8.88v39c0,5.88-.33,8.88-5.71,8.88v.46h39l1.75-12.44h-.47C333.76,120.08,331.62,121.1,323.07,121.1Z" transform="translate(-20 -20)"/><path d="M54.66,130.41h-.33l-8.09,2-.07.47c2.55.46,3.5,2.37,2.38,7.46l-9.64,45.48c-.72,3.17-1.28,7.43,1.88,7.43s7.36-4.43,11.33-11.89l-.4-.33c-3.1,4.19-6.5,7.86-8.09,7.86-1.42,0-.79-2.94-.56-4Z" transform="translate(-20 -20)"/><path d="M82.35,180.84l-.46-.33c-4.76,5.88-10.37,9.74-15.55,9.74-4.59,0-7.29-3.17-7.29-10.46a35.84,35.84,0,0,1,.85-7.46c16.18-5.09,26.77-9.58,26.77-16.87,0-3.23-2.14-5.61-7.59-5.61-14.65,0-24.32,17.76-24.32,30.89,0,8.65,4.12,12.51,10,12.51S76.7,189.32,82.35,180.84ZM77.83,151c3.4,0,4.42,2.21,4.42,4.76,0,7-7.69,10.29-22,15.21C63.24,160.18,70.93,151,77.83,151Z" transform="translate(-20 -20)"/><path d="M99,191.87v.46h35.32l1.75-12.45h-.47C131.33,190,129.29,191,120.74,191h-8.39c-2.37,0-3.17-1.25-3.17-3.8V144c0-5.88.33-8.88,5.71-8.88v-.47H99.05v.47c5.38,0,5.71,3,5.71,8.88v39C104.73,188.86,104.4,191.87,99,191.87Z" transform="translate(-20 -20)"/><path d="M179.19,182.2,162.62,134H162l-15.05,43.73c-3.33,9.57-5.38,13.8-9.17,14.1v.46h12.74v-.46c-6.17-.33-5.22-4.3-2-13.64l2.38-6.89h20l4.29,12.51c1.91,5.54.56,7.69-3.9,8v.46h15.22v-.46C183,191.54,181.57,189,179.19,182.2Zm-27.72-12.75,9.27-27.32,9.34,27.32Z" transform="translate(-20 -20)"/><path d="M218.21,173c-1.66-3.17-3.57-6.67-5.78-8.15v-.17c6.57-1.81,13.07-6.67,13.07-14.65,0-9.18-7.29-15.39-18.85-15.39H189.39v.47c5.38,0,5.71,3,5.71,8.88v39c0,5.87-.33,8.88-5.71,8.88v.46H205v-.46c-5.38,0-5.48-3-5.48-8.88v-17.6h5.38c2.54,0,4.59.47,6.17,3.63,10,20.27,11.42,23.61,15.85,23.61a34.46,34.46,0,0,0,5.08-.34v-.46C227.25,190.28,225.6,187.28,218.21,173Zm-12-8.88h-6.67V138.79c0-1.91,1.13-2.84,3-2.84h3.73c9.9,0,14.32,6.18,14.32,14.43C220.61,158.93,216,164.14,206.19,164.14Z" transform="translate(-20 -20)"/><path d="M256.86,193.29a34.21,34.21,0,0,0,19-5.72V176.15c0-5.87.16-8.54,2.54-8.87v-.47H266.2v.47c4.59.33,5.21,3,5.21,8.87v8.55c0,4.59-6.8,7.46-14.42,7.46-12.05,0-20.93-12.34-20.93-28.51,0-16.64,8.88-28.85,20.6-28.85,8.88,0,13.53,2.6,17.76,10.86h.46v-7.2c-3.8-2.31-9.34-4.75-18.22-4.75-15.05,0-25.68,12.21-25.68,29.94C231,180.78,241.51,193.29,256.86,193.29Z" transform="translate(-20 -20)"/><path d="M305.28,191.07h-12c-2.38,0-3.17-1.25-3.17-3.79V163h11.09c6.8,0,8,2.78,9.11,8.15h.46v-17h-.46c-1.12,5.88-2.31,7.59-9.11,7.59H290.06V135.92H304c8.55,0,10.63,1,14.26,9.74h.46l-1-11H279.93v.46c5.38,0,5.71,3,5.71,8.88v39c0,5.88-.33,8.88-5.71,8.88v.46H319l1.74-12.44h-.46C316,190.05,313.83,191.07,305.28,191.07Z" transform="translate(-20 -20)"/></svg>